<svg id="Component_1_1" data-name="Component 1 – 1" xmlns="http://www.w3.org/2000/svg" xmlns:xlink="http://www.w3.org/1999/xlink" width="48" height="48" viewBox="0 0 48 48">
  <defs>
    <clipPath id="clip-path">
      <rect id="Rectangle_3" data-name="Rectangle 3" width="32" height="32" transform="translate(1832 32)" fill="#fff"/>
    </clipPath>
  </defs>
  <rect id="Rectangle_2" data-name="Rectangle 2" width="48" height="48" rx="4" fill="#fff"/>
  <g id="Mask_Group_1" data-name="Mask Group 1" transform="translate(-1824 -24)" opacity="0.4" clip-path="url(#clip-path)">
    <g id="logout_2_" data-name="logout (2)" transform="translate(1830.842 30.834)">
      <g id="Group_1" data-name="Group 1">
        <path id="Path_1" data-name="Path 1" d="M15.9,1.166a7.51,7.51,0,1,0,7.51,7.51,7.51,7.51,0,0,0-7.51-7.51Z" fill-rule="evenodd"/>
        <path id="Path_2" data-name="Path 2" d="M28.113,17.3a3.8,3.8,0,0,0-2.852-1.287h-2.73a3.8,3.8,0,0,0-3.8,3.8v9.553a3.8,3.8,0,0,0,3.8,3.8h2.73a3.8,3.8,0,0,0,2.852-1.287A1.073,1.073,0,0,0,26.5,30.46a1.65,1.65,0,0,1-1.243.561h-2.73a1.657,1.657,0,0,1-1.657-1.657V19.811a1.657,1.657,0,0,1,1.657-1.657h2.73a1.65,1.65,0,0,1,1.243.561,1.073,1.073,0,0,0,1.609-1.42Z" fill-rule="evenodd"/>
        <path id="Path_3" data-name="Path 3" d="M32.182,23.829a1.073,1.073,0,0,1,0,1.517l-2.861,2.861A1.073,1.073,0,0,1,27.8,26.69l2.861-2.861A1.073,1.073,0,0,1,32.182,23.829Z" fill-rule="evenodd"/>
        <path id="Path_4" data-name="Path 4" d="M32.182,25.346a1.073,1.073,0,0,0,0-1.517l-2.861-2.861A1.073,1.073,0,0,0,27.8,22.485l2.861,2.861A1.073,1.073,0,0,0,32.182,25.346Z" fill-rule="evenodd"/>
        <path id="Path_5" data-name="Path 5" d="M22.482,24.587a1.073,1.073,0,0,1,1.073-1.073h7.153a1.073,1.073,0,0,1,0,2.146H23.555A1.073,1.073,0,0,1,22.482,24.587Z" fill-rule="evenodd"/>
      </g>
      <path id="Path_6" data-name="Path 6" d="M16.605,19.3q-.022.253-.022.512v9.553a5.921,5.921,0,0,0,.773,2.934H4.324a2.5,2.5,0,0,1-2.5-2.5V24.542a2.371,2.371,0,0,1,1.259-2.094A27.029,27.029,0,0,1,16.605,19.3Z"/>
    </g>
  </g>
</svg>
